<?xml version="1.0" encoding="utf-8"?>
<!-- Generator: Adobe Illustrator 23.0.3, SVG Export Plug-In . SVG Version: 6.00 Build 0)  -->
<svg version="1.1" id="Calque_1" xmlns="http://www.w3.org/2000/svg" xmlns:xlink="http://www.w3.org/1999/xlink" x="0px" y="0px"
	 viewBox="0 0 416.5 88.7" style="enable-background:new 0 0 416.5 88.7;" xml:space="preserve">
<style type="text/css">
	.st0{fill:#FFFFFF;}
	.st1{fill:url(#SVGID_1_);}
	.st2{fill:url(#SVGID_2_);}
	.st3{fill:url(#SVGID_3_);}
	.st4{fill:url(#SVGID_4_);}
	.st5{fill:url(#SVGID_5_);}
	.st6{fill:url(#SVGID_6_);}
	.st7{fill:url(#SVGID_7_);}
	.st8{fill:url(#SVGID_8_);}
	.st9{fill:url(#SVGID_9_);}
	.st10{fill:url(#SVGID_10_);}
	.st11{fill:url(#SVGID_11_);}
	.st12{fill:url(#SVGID_12_);}
</style>
<title>Logo Devfactory</title>
<g>
	<path class="st0" d="M118.7,16.8h11.7c13.1,0,19,6.6,19,20.7c0,13-5.3,21.8-19,21.8h-11.7V16.8z M124.8,54h5.4
		c9.1,0,13-4.9,13-15.9c0-12-4.8-16.1-13.2-16.1h-5.2L124.8,54z"/>
	<path class="st0" d="M181.8,56.5c-2.4,1.8-5.8,3.2-11,3.2c-9.8,0-15-5.2-15-17.3c0-11.7,6.5-17.1,14.6-17.1s12.5,5.2,12.5,13.2
		c0,1.9-0.1,3.9-0.3,5.8h-20.9c0.4,7.3,3.4,10.4,9.8,10.4c2.8,0,5.5-1,7.6-2.7L181.8,56.5z M161.8,39.8H177c0.1-0.5,0.1-1.4,0.1-1.6
		c0-5.2-2.2-8-7.1-8C165.8,30.2,162.1,33,161.8,39.8L161.8,39.8z"/>
	<path class="st0" d="M198.5,44.6c1.1,3.6,1.8,6.1,2.4,8.9h0.2c0.6-2.7,1.3-5.3,2.4-8.9l5.8-18.7h6.1l-11,33.3h-6.8l-11.5-33.3h6.5
		L198.5,44.6z"/>
	<path class="st0" d="M221.4,59.2V16.8h23.1V22h-17v14.4h14.9v5.3h-14.9v17.6H221.4z"/>
	<path class="st0" d="M271.2,35.8v14.5c0,2.7,0.8,4.3,3,4.3h0.9v4.3c-0.8,0.4-1.7,0.6-2.5,0.6c-2.7,0.2-5.1-1.4-6.1-3.9h-0.2
		c-1.5,1.8-4.1,4.2-9.5,4.2c-6.2,0-9.7-4.4-9.7-8.9c0-7.5,7.1-11.1,18.5-10.8v-3.3c0-4.9-2.4-6.4-6.4-6.4c-2.9-0.1-5.6,1.4-7,3.9
		l-4.3-3.3c2.6-3.7,6.9-5.9,11.5-5.7C266.8,25.4,271.2,28.5,271.2,35.8z M265.5,44.6c-7.3-0.4-12.6,1.5-12.6,5.8
		c0,2.6,1.9,4.7,5.3,4.7c2.9,0,5.7-1.5,7.3-3.9L265.5,44.6z"/>
	<path class="st0" d="M294.6,25.3c5.3,0,8.6,2,10.1,3.9l-4,4.2c-1.6-1.9-3.9-2.9-6.3-2.9c-4.9,0-8.2,3.2-8.2,11.9s3,12.3,8.2,12.3
		c2.4,0.1,4.7-1,6.2-2.8l3.8,3.9c-1.5,1.8-4.4,4.1-10.5,4.1c-8.4,0-13.8-4.8-13.8-16.8S286.2,25.3,294.6,25.3z"/>
	<path class="st0" d="M311.9,49.8V30.6h-4.7v-3.8l4.7-1.2l1.9-8.4h4v8.7h8.9v4.7h-8.9v19.1c0,3.3,1.7,4.7,4.4,4.7
		c1.8,0.1,3.5-0.3,5-1.3l1.6,4.7c-1.2,0.8-3.5,1.7-8,1.7C315.3,59.5,311.9,56.6,311.9,49.8z"/>
	<path class="st0" d="M332.7,42.7c0-10.3,4-17.4,14.4-17.4s14.1,6.8,14.1,17.1s-4,17.4-14.4,17.4S332.7,52.9,332.7,42.7z
		 M347.1,54.8c5.8,0,7.9-3.9,7.9-12c0-8.4-2.4-12.5-8.2-12.5c-5.6,0-7.9,3.9-7.9,12.1C338.8,50.6,341.3,54.8,347.1,54.8z"/>
	<path class="st0" d="M386.6,31.7c-1.2-0.3-2.5-0.5-3.8-0.5c-3.1,0-6.4,1.3-8,3.8v24.2h-5.9V25.9h4.6l1.3,4.1h0.2
		c1.7-3,5-4.8,8.4-4.7c1.1,0,2.2,0.1,3.2,0.3V31.7z"/>
	<path class="st0" d="M389.2,66.1c1,0.4,2.1,0.6,3.3,0.7c3.8,0,6-2.1,7.1-6.7l-12.2-34.1h6.6l4.9,14.8c1.8,5.3,2.8,9.1,3.5,12h0.2
		c0.8-4.1,1.8-8.1,3.1-12l4.6-14.8h6.2l-11.6,35.4c-2,6.2-5.3,10.6-12.5,10.6c-1.5,0-2.9-0.2-4.3-0.7L389.2,66.1z"/>
</g>
<g>
	<linearGradient id="SVGID_1_" gradientUnits="userSpaceOnUse" x1="2.3886" y1="52.907" x2="30.6346" y2="-3.3573">
		<stop  offset="0" style="stop-color:#CCCCCC"/>
		<stop  offset="1" style="stop-color:#FFFFFF"/>
	</linearGradient>
	<path class="st1" d="M39.3,0.3c-5.6,4.4-10,10.1-12.7,16.7C19,24.4,14.3,34.3,13.3,44.8c-0.1,1.4-0.2,2.9-0.2,4.4V50
		c-0.7,2.7-1.2,5.4-1.4,8.2c-0.7-0.9-1.3-1.9-1.9-2.8c-4.6-7.5-7.3-16-7.6-24.8C7.6,14.1,22.1,2.3,39.3,0.3z"/>
	
		<linearGradient id="SVGID_2_" gradientUnits="userSpaceOnUse" x1="26.58" y1="81.5001" x2="63.24" y2="81.5001" gradientTransform="matrix(1 0 0 -1 0 90)">
		<stop  offset="0" style="stop-color:#CCCCCC"/>
		<stop  offset="1" style="stop-color:#FFFFFF"/>
	</linearGradient>
	<path class="st2" d="M63.2,4.2C61.6,4.1,60,4,58.3,4c-6.2,0-12.3,1.2-17.9,3.6l0,0C35.3,9.9,30.6,13,26.6,17
		c2.7-6.6,7.1-12.4,12.7-16.7C41,0.1,42.7,0,44.3,0C49,0,53.6,0.7,58,2.1l0,0C59.8,2.7,61.5,3.4,63.2,4.2z"/>
	<linearGradient id="SVGID_3_" gradientUnits="userSpaceOnUse" x1="-0.1089" y1="42.03" x2="24.2646" y2="80.5266">
		<stop  offset="0" style="stop-color:#CCCCCC"/>
		<stop  offset="1" style="stop-color:#FFFFFF"/>
	</linearGradient>
	<path class="st3" d="M13.7,76.4c-1.3-1.3-2.6-2.6-3.8-4C0.4,60.7-2.5,45,2.2,30.6c0.4,8.8,3,17.3,7.6,24.8c0.6,1,1.2,1.9,1.9,2.8
		c-0.1,1.3-0.2,2.6-0.2,3.9C11.5,67,12.3,71.8,13.7,76.4z"/>
	<linearGradient id="SVGID_4_" gradientUnits="userSpaceOnUse" x1="7.322" y1="52.5596" x2="30.7844" y2="93.5619">
		<stop  offset="0" style="stop-color:#CCCCCC"/>
		<stop  offset="1" style="stop-color:#FFFFFF"/>
	</linearGradient>
	<path class="st4" d="M34.5,87.6c-7.8-1.8-15-5.6-20.7-11.2c-1.5-4.6-2.2-9.4-2.2-14.3c0-1.3,0.1-2.6,0.2-3.9
		c0.2-2.8,0.7-5.5,1.4-8.2C13.4,65.3,21.4,79.5,34.5,87.6z"/>
	
		<linearGradient id="SVGID_5_" gradientUnits="userSpaceOnUse" x1="31.74" y1="64.8387" x2="57.4877" y2="82.8885" gradientTransform="matrix(1 0 0 -1 0 90)">
		<stop  offset="0" style="stop-color:#CCCCCC"/>
		<stop  offset="1" style="stop-color:#FFFFFF"/>
	</linearGradient>
	<path class="st5" d="M26.6,17l-0.2,0.4c-1.6,4.3-2.5,8.8-2.6,13.4c-0.7,0.8-1.5,1.5-2.2,2.4l-0.1,0.2c-3.9,4.9-6.7,10.6-8.4,16.7
		v-0.8c0-1.5,0.1-3,0.2-4.4C14.3,34.3,19,24.4,26.6,17z"/>
	<linearGradient id="SVGID_6_" gradientUnits="userSpaceOnUse" x1="21.0452" y1="10.6439" x2="76.3983" y2="27.5004">
		<stop  offset="0" style="stop-color:#CCCCCC"/>
		<stop  offset="1" style="stop-color:#FFFFFF"/>
	</linearGradient>
	<path class="st6" d="M83.5,28.9c0,1.7-0.2,3.4-0.5,5.1c-8.1-8.5-19.3-13.4-31-13.4l0,0c-2.4-0.8-4.9-1.1-7.4-1.1
		c-3,0-5.9,0.5-8.7,1.5l0,0c-1.9,0.7-3.8,1.7-5.5,2.9c-2.4,1.7-4.5,3.8-6.2,6.2l0,0c-0.1,0.2-0.3,0.4-0.4,0.6
		c-0.4-3.4,1-9.2,2.6-13.4l0.2-0.4c4-3.9,8.7-7.1,13.8-9.3l0,0C46.1,5.2,52.2,4,58.3,4c1.6,0,3.3,0.1,4.9,0.3
		c8.1,3.8,14.8,9.9,19.3,17.6V22C83.2,24.3,83.5,26.6,83.5,28.9z"/>
	<linearGradient id="SVGID_7_" gradientUnits="userSpaceOnUse" x1="13.0543" y1="56.0068" x2="91.8698" y2="53.7289">
		<stop  offset="0" style="stop-color:#CCCCCC"/>
		<stop  offset="1" style="stop-color:#FFFFFF"/>
	</linearGradient>
	<path class="st7" d="M88.7,44.3c0,10.9-4,21.4-11.3,29.5c-20.9,11-46.6,6.3-62.3-11.4c-1.2-4.1-1.9-8.3-2-12.5
		c1.6-6.1,4.5-11.8,8.4-16.7l0.1-0.2c0.5-0.6,1.5-1.6,2.2-2.4c0,0-0.1,0.2-0.1,0.2l0,0c-0.1,0.2-0.3,0.5-0.4,0.7l0,0
		c-7,11.8-3.1,27,8.6,34c3.2,1.9,6.9,3.1,10.6,3.4c7.8,6.3,18.6,7.4,27.5,2.9l0,0c12-6.2,17.1-20.7,11.6-33c0.6-1.6,1.1-3.2,1.4-4.9
		c2.1,2.2,4,4.7,5.6,7.3C88.7,42.3,88.7,43.3,88.7,44.3z"/>
	
		<linearGradient id="SVGID_8_" gradientUnits="userSpaceOnUse" x1="15.1" y1="14.3926" x2="77.45" y2="14.3926" gradientTransform="matrix(1 0 0 -1 0 90)">
		<stop  offset="0" style="stop-color:#CCCCCC"/>
		<stop  offset="1" style="stop-color:#FFFFFF"/>
	</linearGradient>
	<path class="st8" d="M77.4,73.9c-10.8,12.1-27.2,17.3-43,13.7c-9.3-5.8-16.1-14.7-19.3-25.1C30.8,80.2,56.5,84.9,77.4,73.9z"/>
	<linearGradient id="SVGID_9_" gradientUnits="userSpaceOnUse" x1="75.4449" y1="46.7167" x2="59.9552" y2="26.2156">
		<stop  offset="0" style="stop-color:#CCCCCC"/>
		<stop  offset="1" style="stop-color:#FFFFFF"/>
	</linearGradient>
	<path class="st9" d="M81.6,38.9c-2.6,6.5-7.6,11.7-14,14.5c4.2-10.7,0.5-22.8-8.9-29.4C68.6,24,77.5,29.9,81.6,38.9z"/>
	
		<linearGradient id="SVGID_10_" gradientUnits="userSpaceOnUse" x1="45.9248" y1="15.2825" x2="89.8048" y2="43.5825" gradientTransform="matrix(1 0 0 -1 0 90)">
		<stop  offset="0" style="stop-color:#CCCCCC"/>
		<stop  offset="1" style="stop-color:#FFFFFF"/>
	</linearGradient>
	<path class="st10" d="M83.8,49.3c0,9.5-5.3,18.3-13.8,22.6l0,0c-8.9,4.6-19.7,3.4-27.5-2.9c0.7,0.1,1.4,0.1,2.1,0.1
		c1,0,1.9-0.1,2.9-0.2c9.1-1.1,16.8-7.1,20.2-15.6c6.4-2.8,11.4-8,14-14.5C83.1,42.1,83.8,45.7,83.8,49.3z"/>
	<linearGradient id="SVGID_11_" gradientUnits="userSpaceOnUse" x1="93.7359" y1="44.9516" x2="55.0116" y2="18.0723">
		<stop  offset="0" style="stop-color:#CCCCCC"/>
		<stop  offset="1" style="stop-color:#FFFFFF"/>
	</linearGradient>
	<path class="st11" d="M83,34c-0.3,1.7-0.8,3.3-1.4,4.9c-4.1-9-13-14.8-22.8-14.9c-2.1-1.5-4.3-2.6-6.8-3.3
		C63.7,20.6,74.9,25.5,83,34z"/>
	<linearGradient id="SVGID_12_" gradientUnits="userSpaceOnUse" x1="99.7361" y1="48.8137" x2="82.1962" y2="27.4014">
		<stop  offset="0" style="stop-color:#CCCCCC"/>
		<stop  offset="1" style="stop-color:#FFFFFF"/>
	</linearGradient>
	<path class="st12" d="M83,34c0.8-4,0.6-8.1-0.4-12v-0.2l0.1,0.2c3.4,5.9,5.4,12.5,5.9,19.3C87,38.7,85.1,36.2,83,34z"/>
</g>
</svg>
